<svg width="25" height="25" viewBox="0 0 25 25" fill="none" xmlns="http://www.w3.org/2000/svg">
<path d="M1 14.4138C1 12.757 2.34315 11.4138 4 11.4138H5.17687C5.97912 11.4138 6.70374 10.9344 7.01753 10.1961L10.3831 2.277C10.6056 1.75363 11.1192 1.41382 11.6879 1.41382V1.41382C13.3847 1.41382 14.7015 2.89404 14.5041 4.57925L14.1337 7.73923C14.0293 8.63075 14.7259 9.41382 15.6235 9.41382H20.289C22.199 9.41382 23.6226 11.1749 23.2224 13.0424L21.5082 21.0424C21.2118 22.4256 19.9894 23.4138 18.5748 23.4138H4C2.34315 23.4138 1 22.0707 1 20.4138V14.4138Z" stroke="#14142B" stroke-width="2"/>
</svg>
