<svg width="22" height="23" viewBox="0 0 22 23" fill="none" xmlns="http://www.w3.org/2000/svg">
<path d="M10.3079 1.65797C10.5645 1.0432 11.4355 1.0432 11.6921 1.65797L13.8937 6.93186C13.9962 7.17755 14.2214 7.35045 14.4852 7.38616L20.2876 8.17148C20.9378 8.25948 21.1695 9.08097 20.6612 9.49579L16.1809 13.1518C15.9594 13.3326 15.86 13.6235 15.9244 13.902L17.3568 20.0919C17.5119 20.762 16.7583 21.27 16.1953 20.8748L11.4309 17.5309C11.1723 17.3494 10.8277 17.3494 10.5691 17.5309L5.8047 20.8749C5.24167 21.27 4.48807 20.7621 4.64315 20.0919L6.07545 13.902C6.1399 13.6235 6.04042 13.3326 5.81895 13.1518L1.3388 9.49578C0.830477 9.08096 1.06222 8.25948 1.7124 8.17149L7.51479 7.38616C7.77862 7.35045 8.00375 7.17755 8.10631 6.93186L10.3079 1.65797Z" stroke="#ED2E7E" stroke-width="2" stroke-miterlimit="3.3292" stroke-linecap="round" stroke-linejoin="round"/>
</svg>
